HIERARCHY
ROOT Hips
{
	OFFSET 0.00000 0.00000 0.00000
	CHANNELS 6 Xposition Yposition Zposition Zrotation Yrotation Xrotation 
	JOINT LHipJoint
	{
		OFFSET 0 0 0
		CHANNELS 3 Zrotation Yrotation Xrotation
		JOINT LeftHip
		{
			OFFSET 1.58895 -1.83665 0.71753
			CHANNELS 3 Zrotation Yrotation Xrotation
			JOINT LeftKnee
			{
				OFFSET 2.50528 -6.88321 0.00000
				CHANNELS 3 Zrotation Yrotation Xrotation
				JOINT LeftAnkle
				{
					OFFSET 2.63244 -7.23257 0.00000
					CHANNELS 3 Zrotation Yrotation Xrotation
					JOINT LeftToe
					{
						OFFSET 0.23691 -0.65090 1.72750
						CHANNELS 3 Zrotation Yrotation Xrotation
						End Site
						{
							OFFSET 0.00000 -0.00000 0.92561
						}
					}
				}
			}
		}
	}
	JOINT RHipJoint
	{
		OFFSET 0 0 0
		CHANNELS 3 Zrotation Yrotation Xrotation
		JOINT RightHip
		{
			OFFSET -1.51435 -1.83665 0.71753
			CHANNELS 3 Zrotation Yrotation Xrotation
			JOINT RightKnee
			{
				OFFSET -2.54551 -6.99375 0.00000
				CHANNELS 3 Zrotation Yrotation Xrotation
				JOINT RightAnkle
				{
					OFFSET -2.66027 -7.30903 0.00000
					CHANNELS 3 Zrotation Yrotation Xrotation
					JOINT RightToe
					{
						OFFSET -0.22981 -0.63138 2.03959
						CHANNELS 3 Zrotation Yrotation Xrotation
						End Site
						{
							OFFSET -0.00000 -0.00000 1.07060
						}
					}
				}
			}
		}
	}
	JOINT lowerback
	{
		OFFSET 0 0 0
		CHANNELS 3 Zrotation Yrotation Xrotation
		JOINT Chest
		{
			OFFSET -0.02651 1.86275 -0.11152
			CHANNELS 3 Zrotation Yrotation Xrotation
			JOINT Chest2
			{
				OFFSET 0.01019 1.86224 0.04087
				CHANNELS 3 Zrotation Yrotation Xrotation
				JOINT lowerneck
				{
					OFFSET 0 0 0
					CHANNELS 3 Zrotation Yrotation Xrotation
					JOINT Neck
					{
						OFFSET -0.01926 1.80512 0.08867
						CHANNELS 3 Zrotation Yrotation Xrotation
						JOINT Head
						{
							OFFSET 0.05516 1.76451 -0.38475
							CHANNELS 3 Zrotation Yrotation Xrotation
							End Site
							{
								OFFSET 0.01592 1.82587 -0.14001
							}
						}
					}
				}
				JOINT LeftCollar
				{
					OFFSET 0 0 0
					CHANNELS 3 Zrotation Yrotation Xrotation
					JOINT LeftShoulder
					{
						OFFSET 3.47116 1.51376 0.14491
CHANNELS 3 Zrotation Xrotation Yrotation
						JOINT LeftElbow
						{
OFFSET 0 -4.780950 0.000000
CHANNELS 3 Zrotation Xrotation Yrotation
							JOINT LeftWrist
							{
OFFSET 0 -3.586150 -0.000000
CHANNELS 3 Zrotation Xrotation Yrotation
								JOINT lhand
								{
									OFFSET 0 0 0
CHANNELS 3 Zrotation Xrotation Yrotation
									JOINT LFingers
									{
OFFSET 0 -0.659810 0.000000
CHANNELS 3 Zrotation Xrotation Yrotation
										End Site
										{
OFFSET 0 -0.531960 0.000000
										}
									}
								}
								JOINT LThumb
								{
OFFSET 0 0.000000 0.000000
CHANNELS 3 Zrotation Xrotation Yrotation
									End Site
									{
OFFSET 0 -0.540080 0.540080
									}
								}
							}
						}
					}
				}
				JOINT RightCollar
				{
					OFFSET 0 0 0
					CHANNELS 3 Zrotation Yrotation Xrotation
					JOINT RightShoulder
					{
						OFFSET -3.31725 1.61216 0.35156
CHANNELS 3 Zrotation Xrotation Yrotation
						JOINT RightElbow
						{
OFFSET 0 -4.489130 0.000000
CHANNELS 3 Zrotation Xrotation Yrotation
							JOINT RightWrist
							{
OFFSET 0 -3.705100 0.000000
CHANNELS 3 Zrotation Xrotation Yrotation
								JOINT rhand
								{
									OFFSET 0 0 0
CHANNELS 3 Zrotation Xrotation Yrotation
									JOINT RFingers
									{
OFFSET 0 -0.449140 0.000000
CHANNELS 3 Zrotation Xrotation Yrotation
										End Site
										{
OFFSET 0 -0.362110 0.000000
										}
									}
								}
								JOINT RThumb
								{
OFFSET 0 0.000000 0.000000
CHANNELS 3 Zrotation Xrotation Yrotation
									End Site
									{
OFFSET 0 -0.367630 0.367630
									}
								}
							}
						}
					}
				}
			}
		}
	}
}
MOTION
Frames: 11
Frame Time: .0083333
-0.9336 18.6020 5.4799 -4.6905 -11.4662 -2.8719 0.0000 0.0000 0.0000 -8.6277 0.7522 -1.9710 1.9161 8.6890 24.8273 1.5105 3.6330 -24.7684 8.9078 -16.7480 -55.7709 0.0000 0.0000 0.0000 20.0730 4.6308 12.0131 0.0000 -0.0000 0.0000 -0.7780 -5.3409 -19.4387 -0.9120 6.0852 -17.0318 2.3468 -1.4254 16.1563 2.8792 -1.4342 5.7113 1.9649 -0.7367 -2.9566 -15.1473 -8.2150 1.8247 -2.6511 -9.9900 41.5051 0.2800 -6.9963 15.1350 -0.0000 0.0000 0.0000 63.4885 4.8097 10.6734 118.8715 -56.6032 84.7183 21.0884 -35.2233 34.2402 0.0 0.0 0.0 -7.1250 0.0 0.0 -6.3439 -5.933 -7.0068 -0.0000 0.0000 0.0000 -68.4503 11.8606 -24.7438 -126.4522 -54.3299 -90.9675 -38.7177 20.5987 17.4017 0.0 0.0 0.0 7.1250 0.0 -0.0 -11.0782 51.5315 1.8006
-0.9378 18.6022 5.4755 -4.7129 -11.5353 -2.8368 0.0000 0.0000 0.0000 -8.5838 0.7760 -1.9849 1.9115 8.6793 24.7971 1.5089 3.6698 -24.7744 8.9196 -16.7557 -55.8117 0.0000 0.0000 0.0000 20.1253 4.7465 12.0078 0.0000 -0.0000 0.0000 -0.7821 -5.3458 -19.4831 -0.9067 6.0678 -16.9814 2.2414 -1.4241 16.1621 2.9213 -1.4481 5.7349 2.0712 -0.7449 -2.9308 -15.4263 -8.3913 2.1356 -2.4897 -10.3387 41.3171 0.3657 -7.1641 15.0398 -0.0000 0.0000 0.0000 64.7699 4.6763 11.4039 120.5792 -56.1536 86.1404 21.1114 -35.185 34.7084 0.0 0.0 0.0 -7.1250 0.0 0.0 -6.4052 -6.4097 -7.1226 -0.0000 0.0000 0.0000 -69.6794 11.2158 -24.7694 -127.1945 -54.0662 -91.5695 -39.4412 21.2145 17.1877 0.0 0.0 0.0 7.1250 0.0 -0.0 -11.8454 51.426 1.8973
-0.9415 18.6017 5.4714 -4.7857 -11.5853 -2.8139 0.0000 0.0000 0.0000 -8.4900 0.7483 -1.9690 1.9090 8.6740 24.7806 1.5122 3.6613 -24.7953 8.9023 -16.7444 -55.7515 0.0000 0.0000 0.0000 20.2286 4.8349 12.0140 0.0000 0.0000 -0.0000 -0.7877 -5.3281 -19.5270 -0.8790 5.9771 -16.7180 2.1699 -1.4365 16.1254 2.9730 -1.4784 5.8043 2.1692 -0.7613 -2.8341 -15.5877 -8.5443 2.4320 -2.3552 -10.6517 41.0629 0.4303 -7.3007 14.8985 -0.0000 0.0000 0.0000 65.9559 4.572 12.1525 122.0432 -55.7404 87.3534 21.6713 -35.5422 35.2654 0.0 0.0 0.0 -7.1250 0.0 0.0 -6.1918 -7.0945 -6.9475 -0.0000 0.0000 0.0000 -70.7814 10.572 -24.8263 -127.9001 -53.8081 -92.1398 -40.1908 22.048 17.1071 0.0 0.0 0.0 7.1250 0.0 -0.0 -12.6490 51.4889 2.0491
-0.9439 18.6009 5.4686 -4.8532 -11.6261 -2.7944 0.0000 0.0000 0.0000 -8.4060 0.7279 -1.9559 1.9070 8.6697 24.7674 1.5152 3.6517 -24.8130 8.8861 -16.7338 -55.6953 0.0000 0.0000 0.0000 20.3269 4.9148 12.0177 0.0000 -0.0000 0.0000 -0.7845 -5.3731 -19.5263 -0.8904 6.0147 -16.8272 2.1387 -1.4432 16.1064 3.0128 -1.4940 5.8579 2.2301 -0.7700 -2.7651 -15.6756 -8.6917 2.6066 -2.2487 -10.9347 40.9678 0.4620 -7.4212 14.8538 -0.0000 0.0000 0.0000 67.0953 4.3817 12.9038 123.4327 -55.3236 88.499 22.0939 -35.5975 35.468 0.0 0.0 0.0 -7.1250 0.0 0.0 -5.9976 -7.394 -6.7545 -0.0000 0.0000 0.0000 -71.8039 10.0015 -24.8959 -128.6281 -53.534 -92.7264 -40.485 22.4131 16.915 0.0 0.0 0.0 7.1250 0.0 -0.0 -12.9514 51.3174 2.0444
-0.9469 18.6005 5.4662 -4.8709 -11.6546 -2.7696 0.0000 0.0000 0.0000 -8.3673 0.7536 -1.9677 1.9034 8.6620 24.7435 1.5169 3.6262 -24.8130 8.8757 -16.7271 -55.6594 0.0000 0.0000 0.0000 20.3765 4.9877 12.0105 0.0000 0.0000 -0.0000 -0.7771 -5.4617 -19.5120 -0.9222 6.1183 -17.1279 2.0970 -1.4394 16.1181 3.0263 -1.4950 5.8697 2.2682 -0.7712 -2.7574 -15.6218 -8.7965 2.7081 -2.1996 -11.1375 40.9949 0.4507 -7.4974 14.8605 0.0000 -0.0000 0.0000 68.133 4.1188 13.6151 124.7307 -54.9116 89.5638 22.2178 -35.1978 35.7188 0.0 0.0 0.0 -7.1250 0.0 0.0 -5.9740 -7.6751 -6.7529 0.0000 -0.0000 0.0000 -72.7262 9.4743 -24.953 -129.3467 -53.2556 -93.3032 -40.7562 22.7501 16.8501 0.0 0.0 0.0 7.1250 0.0 -0.0 -13.2389 51.2964 2.0842
-0.9505 18.5995 5.4652 -4.8288 -11.6884 -2.7786 0.0000 0.0000 0.0000 -8.3861 0.8293 -1.9463 1.8980 8.6503 24.7075 1.5247 3.5541 -24.8367 8.8608 -16.7173 -55.6074 0.0000 0.0000 0.0000 20.3611 5.0598 12.0323 0.0000 -0.0000 0.0000 -0.7777 -5.5096 -19.5516 -0.9093 6.0763 -17.0060 1.9913 -1.4290 16.1470 3.0271 -1.4970 5.8842 2.3298 -0.7732 -2.7548 -15.5175 -8.8578 2.7962 -2.1094 -11.2930 40.9936 0.4566 -7.5411 14.8480 -0.0000 -0.0000 0.0000 69.0607 3.9009 14.2858 125.9902 -54.49 90.5917 22.3468 -34.7919 36.2873 0.0 0.0 0.0 -7.1250 0.0 0.0 -6.0046 -8.2767 -6.8415 -0.0000 -0.0000 0.0000 -73.5719 8.922 -24.9987 -130.0187 -52.988 -93.8408 -41.1077 23.3547 17.0989 0.0 0.0 0.0 7.1250 0.0 -0.0 -13.6457 51.6793 2.28
-0.9539 18.5978 5.4656 -4.7840 -11.7398 -2.7903 0.0000 0.0000 0.0000 -8.4062 0.9333 -1.9220 1.8919 8.6371 24.6665 1.5288 3.4949 -24.8381 8.8667 -16.7212 -55.6279 0.0000 0.0000 0.0000 20.3375 5.1486 12.0630 0.0000 0.0000 -0.0000 -0.7853 -5.5229 -19.6365 -0.8758 5.9666 -16.6874 1.8700 -1.4136 16.1743 3.0539 -1.4937 5.8899 2.4268 -0.7730 -2.7597 -15.6208 -8.8940 2.8834 -1.8375 -11.4567 40.9937 0.5660 -7.5985 14.8735 -0.0000 0.0000 0.0000 69.9103 3.722 14.8793 127.2438 -54.0484 91.6094 22.5444 -34.6573 36.8009 0.0 0.0 0.0 -7.1250 0.0 0.0 -5.9919 -8.8388 -6.8763 -0.0000 0.0000 0.0000 -74.4009 8.4136 -25.0397 -130.6128 -52.7454 -94.3144 -41.2688 23.9561 17.3598 0.0 0.0 0.0 7.1250 0.0 -0.0 -13.8497 52.0362 2.4378
-0.9586 18.5967 5.4661 -4.7834 -11.7952 -2.7688 0.0000 0.0000 0.0000 -8.3757 1.0254 -1.9344 1.8861 8.6247 24.6281 1.5207 3.5000 -24.7798 8.8940 -16.7390 -55.7228 0.0000 0.0000 0.0000 20.3637 5.2455 12.0736 0.0000 0.0000 0.0000 -0.7909 -5.5210 -19.6903 -0.8326 5.8211 -16.2663 1.7836 -1.3823 16.1671 3.1052 -1.4649 5.9020 2.5242 -0.7602 -2.7404 -15.7754 -8.9395 2.9075 -1.5261 -11.6314 41.0285 0.6921 -7.6631 14.9408 0.0000 -0.0000 0.0000 70.6752 3.4153 15.4787 128.3855 -53.6262 92.5312 22.7699 -34.6865 37.2883 0.0 0.0 0.0 -7.1250 0.0 0.0 -5.9626 -9.3811 -6.8892 0.0000 -0.0000 0.0000 -75.1861 7.9851 -25.1598 -131.1247 -52.5317 -94.7213 -41.3336 24.3532 17.3425 0.0 0.0 0.0 7.1250 0.0 -0.0 -13.9193 52.0295 2.4481
-0.9651 18.5959 5.4667 -4.7952 -11.8306 -2.7595 0.0000 0.0000 0.0000 -8.3280 1.1000 -1.9408 1.8824 8.6166 24.6033 1.5143 3.4994 -24.7313 8.9168 -16.7539 -55.8020 0.0000 0.0000 0.0000 20.4122 5.3140 12.0972 0.0000 -0.0000 0.0000 -0.7922 -5.5305 -19.7100 -0.8089 5.7396 -16.0307 1.7365 -1.3394 16.1863 3.1303 -1.4151 5.9238 2.5685 -0.7364 -2.7272 -15.6150 -8.9960 2.8830 -1.4358 -11.7621 41.0455 0.6860 -7.6861 14.9536 -0.0000 0.0000 0.0000 71.4403 2.9608 16.0782 129.3900 -53.2386 93.3379 23.0871 -34.6887 37.6706 0.0 0.0 0.0 -7.1250 0.0 0.0 -5.8684 -9.8406 -6.8178 -0.0000 0.0000 0.0000 -75.857 7.5715 -25.3378 -131.6329 -52.3153 -95.1241 -41.5312 24.7613 17.3481 0.0 0.0 0.0 7.1250 0.0 -0.0 -14.1380 52.081 2.5059
-0.9720 18.5946 5.4682 -4.7713 -11.8150 -2.7776 0.0000 0.0000 0.0000 -8.3261 1.1210 -1.9234 1.8811 8.6139 24.5947 1.5152 3.4697 -24.7237 8.9170 -16.7540 -55.8028 0.0000 0.0000 0.0000 20.4198 5.3256 12.1336 0.0000 -0.0000 0.0000 -0.7948 -5.5447 -19.7449 -0.8222 5.7854 -16.1629 1.6848 -1.3224 16.2425 3.1302 -1.3984 5.9199 2.5965 -0.7284 -2.7605 -15.3605 -9.0208 2.9548 -1.4040 -11.8493 40.9947 0.6574 -7.6838 14.8922 -0.0000 0.0000 0.0000 72.1465 2.5648 16.6553 130.4721 -52.8033 94.2023 23.1364 -34.4991 37.8996 0.0 0.0 0.0 -7.1250 0.0 0.0 -5.8868 -10.0818 -6.8595 -0.0000 0.0000 0.0000 -76.4577 7.15 -25.4689 -132.1891 -52.0735 -95.5635 -41.8155 25.3291 17.5056 0.0 0.0 0.0 7.1250 0.0 -0.0 -14.4716 52.3399 2.66
-0.9785 18.5938 5.4705 -4.7233 -11.7335 -2.7781 0.0000 0.0000 0.0000 -8.3657 1.0497 -1.9149 1.8805 8.6127 24.5911 1.5173 3.4585 -24.7339 8.9029 -16.7448 -55.7537 0.0000 0.0000 0.0000 20.3866 5.2842 12.1306 0.0000 0.0000 -0.0000 -0.7978 -5.5472 -19.7767 -0.8320 5.8190 -16.2600 1.6380 -1.3358 16.2666 3.1419 -1.4204 5.8942 2.6406 -0.7395 -2.7983 -15.2924 -9.0190 3.0812 -1.2316 -11.9399 40.9547 0.7159 -7.6958 14.8571 -0.0000 -0.0000 0.0000 72.7487 2.2407 17.2643 131.5941 -52.332 95.0933 23.2019 -34.5183 38.4504 0.0 0.0 0.0 -7.1250 0.0 0.0 -5.9604 -10.6484 -6.9935 -0.0000 -0.0000 0.0000 -77.0912 6.8049 -25.5966 -132.7812 -51.8103 -96.0297 -41.714 25.7939 17.5872 0.0 0.0 0.0 7.1250 0.0 -0.0 -14.3683 52.4173 2.668
